<?xml version="1.0" standalone="no"?>
<!DOCTYPE svg PUBLIC "-//W3C//DTD SVG 20010904//EN"
 "http://www.w3.org/TR/2001/REC-SVG-20010904/DTD/svg10.dtd">
<svg version="1.0" xmlns="http://www.w3.org/2000/svg"
 width="920.000000pt" height="500.000000pt" viewBox="0 0 920.000000 500.000000"
 preserveAspectRatio="xMidYMid meet">

<g transform="translate(0.000000,500.000000) scale(0.100000,-0.100000)"
fill="#000000" stroke="none">
<path d="M4540 4385 c-279 -60 -505 -279 -575 -559 -21 -88 -22 -248 0 -341 8
-39 36 -113 62 -165 39 -82 59 -108 142 -190 78 -79 112 -104 181 -138 118
-58 219 -82 345 -82 384 0 697 276 746 658 27 215 -44 429 -199 593 -76 81
-178 152 -268 188 -126 49 -302 64 -434 36z m90 -305 l0 -60 40 0 40 0 0 60 0
60 40 0 c22 0 40 -4 41 -10 0 -5 1 -31 2 -57 l1 -48 63 -12 c83 -16 131 -46
154 -97 46 -102 1 -188 -116 -217 l-50 -13 57 -11 c109 -21 168 -85 168 -179
0 -115 -60 -173 -210 -200 l-65 -12 0 -57 0 -57 -42 0 -43 0 0 61 0 60 -37 -3
-38 -3 0 -58 0 -57 -42 0 -43 0 0 60 0 60 -115 0 -115 0 0 25 c0 23 4 25 45
25 l45 0 0 313 0 312 -45 -3 c-44 -4 -45 -4 -45 27 l0 31 115 0 115 0 0 60 0
60 40 0 40 0 0 -60z"/>
<path d="M4609 3960 c-6 -4 -9 -53 -7 -126 l3 -119 73 2 c50 1 84 8 105 21 74
42 72 168 -3 204 -36 17 -152 29 -171 18z"/>
<path d="M4602 3504 l3 -159 70 1 c130 3 185 48 185 154 0 105 -50 147 -187
157 l-74 6 3 -159z"/>
<path d="M3695 3189 c-569 -370 -625 -409 -635 -435 -18 -46 -12 -74 24 -110
l34 -34 1567 0 c1394 0 1571 2 1600 15 50 25 67 77 43 132 -13 27 -91 80 -588
403 -107 69 -206 134 -220 143 l-26 16 -44 -76 c-52 -89 -187 -231 -273 -287
-68 -44 -168 -87 -263 -112 -52 -13 -107 -18 -224 -18 -179 -1 -245 12 -376
74 -146 70 -258 173 -364 336 -28 43 -52 80 -53 81 -1 1 -92 -57 -202 -128z"/>
<path d="M3226 2444 c-14 -14 -16 -90 -16 -693 0 -540 3 -681 13 -695 11 -16
31 -18 156 -18 95 0 147 4 154 11 9 9 13 191 15 688 2 595 1 679 -13 699 -15
23 -19 24 -155 24 -113 0 -142 -3 -154 -16z"/>
<path d="M4100 2441 c-6 -13 -10 -250 -10 -699 0 -599 2 -681 15 -692 21 -18
279 -17 300 0 13 11 15 108 15 699 0 521 -3 690 -12 699 -8 8 -57 12 -155 12
-130 0 -143 -2 -153 -19z"/>
<path d="M4982 2448 c-9 -9 -12 -178 -12 -699 0 -622 2 -688 16 -700 20 -17
280 -14 301 3 17 14 19 1357 3 1389 -10 17 -23 19 -153 19 -98 0 -147 -4 -155
-12z"/>
<path d="M5859 2443 c-20 -23 -21 -1375 -1 -1395 10 -10 49 -12 155 -10 119 2
144 5 155 19 9 13 12 168 12 694 0 603 -2 679 -16 693 -24 24 -285 23 -305 -1z"/>
<path d="M3070 870 c-18 -18 -20 -33 -20 -144 0 -100 3 -128 16 -140 14 -14
175 -16 1629 -16 1466 0 1615 1 1630 16 13 13 15 38 13 147 -3 129 -3 132 -28
144 -20 10 -356 13 -1622 13 -1585 0 -1598 0 -1618 -20z"/>
</g>
</svg>
